<svg width="24" height="24" viewBox="0 0 24 24" fill="none" xmlns="http://www.w3.org/2000/svg">
<path d="M6.74943 3L8.04468 4.431C8.05593 4.44375 9.13518 5.69175 8.95968 7.1535C8.84793 8.08575 8.23968 8.9475 7.15818 9.70575C3.97818 11.8597 3.01443 14.7578 4.33218 17.5695C5.32443 19.686 7.49718 21 9.83418 21H11.1954L10.3427 19.7917C9.66168 18.9113 9.67518 17.9047 9.83718 17.1547C10.9959 18.0315 12.3497 17.9198 13.2902 17.3197C14.1527 16.77 14.7639 15.7785 14.7842 14.5958C14.9777 14.9018 15.1367 15.258 15.2514 15.6532C15.5829 16.8015 15.5424 18.5527 14.3402 19.7092L13.0877 21H14.2682C14.9364 21 15.6069 20.8755 16.2047 20.5778C18.0722 19.6515 19.3322 17.9603 19.9959 15.5145C20.5367 13.5233 20.1909 10.893 19.0464 8.84625C16.3922 4.083 8.99943 3.2235 8.68593 3.189L6.74943 3ZM10.0892 4.96125C12.2694 5.45175 16.1349 6.7005 17.7392 9.5775C18.6857 11.2703 18.9947 13.401 18.5447 15.141C18.1719 16.596 17.5854 17.6835 16.7469 18.45C17.0432 17.3265 16.9614 16.1685 16.6929 15.237C16.2017 13.536 15.0369 12.3022 13.6517 12.0157L11.9994 11.6707L12.8567 13.1332C13.6517 14.472 13.2204 15.5858 12.4839 16.0545C11.8967 16.4295 10.9374 16.4647 10.1627 15.3285L9.44793 14.2785L8.87343 15.411C8.67468 15.804 7.90443 17.4983 8.42343 19.2787C7.32843 18.9233 6.22218 18.1283 5.64843 16.8383C4.43193 14.1097 6.25593 12.1283 8.00943 10.941C9.47043 9.91725 10.2932 8.697 10.4529 7.3155C10.5557 6.42225 10.3584 5.60925 10.0892 4.96125Z" fill="url(#paint0_linear_1066_6580)"/>
<defs>
<linearGradient id="paint0_linear_1066_6580" x1="12.0028" y1="3" x2="12.0028" y2="21" gradientUnits="userSpaceOnUse">
<stop stop-color="#FF5A00"/>
<stop offset="1" stop-color="#990000"/>
</linearGradient>
</defs>
</svg>
