<svg width="24" height="24" viewBox="0 0 24 24" fill="none" xmlns="http://www.w3.org/2000/svg">
<path d="M11.25 11.25H1.5V6C1.5 4.80653 1.97411 3.66193 2.81802 2.81802C3.66193 1.97411 4.80653 1.5 6 1.5H11.25V11.25ZM3 9.75H9.75V3H6C5.20435 3 4.44129 3.31607 3.87868 3.87868C3.31607 4.44129 3 5.20435 3 6V9.75Z" fill="#0D0D0D"/>
<path d="M13.5 13.5H21.75V18C21.75 18.9946 21.3549 19.9484 20.6517 20.6517C19.9484 21.3549 18.9946 21.75 18 21.75H13.5V13.5Z" fill="#EF1B23"/>
<path d="M18 22.5H12.75V12.75H22.5V18C22.5 19.1935 22.0259 20.3381 21.182 21.182C20.3381 22.0259 19.1935 22.5 18 22.5ZM14.25 21H18C18.7956 21 19.5587 20.6839 20.1213 20.1213C20.6839 19.5587 21 18.7956 21 18V14.25H14.25V21Z" fill="#EF1B23"/>
<path d="M11.25 22.5H6C4.80653 22.5 3.66193 22.0259 2.81802 21.182C1.97411 20.3381 1.5 19.1935 1.5 18V12.75H11.25V22.5ZM3 14.25V18C3 18.7956 3.31607 19.5587 3.87868 20.1213C4.44129 20.6839 5.20435 21 6 21H9.75V14.25H3Z" fill="#0D0D0D"/>
<path d="M22.5 11.25H12.75V1.5H18C19.1935 1.5 20.3381 1.97411 21.182 2.81802C22.0259 3.66193 22.5 4.80653 22.5 6V11.25ZM14.25 9.75H21V6C21 5.20435 20.6839 4.44129 20.1213 3.87868C19.5587 3.31607 18.7956 3 18 3H14.25V9.75Z" fill="#0D0D0D"/>
</svg>
