<svg width="16" height="16" viewBox="0 0 16 16" fill="none" xmlns="http://www.w3.org/2000/svg">
<path d="M11.9134 14.58C11.7067 14.58 11.5001 14.5267 11.3134 14.4133L8.64006 12.8267C8.36006 12.82 8.08005 12.8 7.81339 12.76C7.63339 12.7333 7.48005 12.6133 7.41338 12.44C7.34671 12.2667 7.38005 12.08 7.50005 11.94C7.94005 11.4267 8.16672 10.8133 8.16672 10.16C8.16672 8.54667 6.74672 7.23332 5.00005 7.23332C4.34672 7.23332 3.72005 7.41335 3.19338 7.76002C3.04671 7.85335 2.86672 7.86667 2.70672 7.79334C2.55338 7.72001 2.44005 7.57332 2.42005 7.39999C2.40005 7.21332 2.38672 7.02667 2.38672 6.83334C2.38672 3.52667 5.25339 0.840012 8.77339 0.840012C12.2934 0.840012 15.1601 3.52667 15.1601 6.83334C15.1601 8.64667 14.32 10.3133 12.84 11.4533L13.0667 13.2667C13.1201 13.72 12.92 14.1467 12.54 14.3934C12.3534 14.5134 12.1334 14.58 11.9134 14.58ZM8.76671 11.82C8.86005 11.8133 8.95339 11.84 9.03339 11.8934L11.8267 13.5534C11.9001 13.6 11.9601 13.58 12.0001 13.5534C12.0334 13.5333 12.0867 13.48 12.0734 13.3867L11.8134 11.28C11.7934 11.0933 11.8734 10.9134 12.0201 10.8067C13.3801 9.85335 14.1601 8.39999 14.1601 6.81999C14.1601 4.06666 11.7467 1.82667 8.77339 1.82667C5.91339 1.82667 3.56672 3.90669 3.39338 6.52002C3.89338 6.32669 4.43339 6.22002 4.99339 6.22002C7.29339 6.22002 9.16005 7.97999 9.16005 10.1467C9.16672 10.7333 9.02671 11.3 8.76671 11.82Z" fill="#6B6B6B"/>
<path d="M3.05318 15.1667C2.87985 15.1667 2.71318 15.1201 2.55985 15.0201C2.25985 14.8267 2.09985 14.4934 2.13985 14.1401L2.27318 13.1134C1.37318 12.38 0.839844 11.2934 0.839844 10.1534C0.839844 8.85337 1.51985 7.64004 2.65985 6.91338C3.34652 6.46671 4.15984 6.22673 5.00651 6.22673C7.30651 6.22673 9.17318 7.9867 9.17318 10.1534C9.17318 11.0334 8.85318 11.9 8.26651 12.5867C7.51318 13.5 6.38652 14.0334 5.14652 14.0734L3.51985 15.04C3.37318 15.1267 3.21318 15.1667 3.05318 15.1667ZM4.99985 7.22673C4.34651 7.22673 3.71984 7.40672 3.19318 7.75338C2.33984 8.30005 1.83318 9.19337 1.83318 10.1534C1.83318 11.08 2.28652 11.9267 3.08652 12.4734C3.23985 12.5801 3.31985 12.76 3.29985 12.9467L3.15318 14.0867L4.74651 13.1401C4.82651 13.0934 4.91318 13.0667 4.99985 13.0667C5.97985 13.0667 6.90652 12.6467 7.49319 11.9334C7.93319 11.4134 8.16651 10.8 8.16651 10.1467C8.16651 8.54003 6.74651 7.22673 4.99985 7.22673Z" fill="#6B6B6B"/>
</svg>
