<svg width="17" height="16" viewBox="0 0 17 16" fill="none" xmlns="http://www.w3.org/2000/svg">
<path d="M12.4996 5.27335C12.4796 5.27335 12.4662 5.27335 12.4462 5.27335H12.4129C11.1529 5.23335 10.2129 4.26001 10.2129 3.06001C10.2129 1.83335 11.2129 0.840012 12.4329 0.840012C13.6529 0.840012 14.6529 1.84001 14.6529 3.06001C14.6462 4.26668 13.7062 5.24001 12.5062 5.28001C12.5062 5.27335 12.5062 5.27335 12.4996 5.27335ZM12.4329 1.83335C11.7596 1.83335 11.2129 2.38002 11.2129 3.05335C11.2129 3.71335 11.7262 4.24668 12.3862 4.27335C12.3929 4.26668 12.4462 4.26668 12.5062 4.27335C13.1529 4.24002 13.6529 3.70668 13.6596 3.05335C13.6596 2.38002 13.1129 1.83335 12.4329 1.83335Z" fill="#6B6B6B"/>
<path d="M12.507 10.1867C12.247 10.1867 11.987 10.1667 11.727 10.12C11.4537 10.0733 11.2737 9.81335 11.3203 9.54001C11.367 9.26668 11.627 9.08668 11.9003 9.13334C12.7203 9.27334 13.587 9.12002 14.167 8.73335C14.4803 8.52668 14.647 8.26668 14.647 8.00668C14.647 7.74668 14.4737 7.49334 14.167 7.28668C13.587 6.90001 12.707 6.74668 11.8803 6.89334C11.607 6.94668 11.347 6.76001 11.3003 6.48668C11.2537 6.21334 11.4337 5.95335 11.707 5.90668C12.7937 5.71335 13.9203 5.92001 14.7203 6.45334C15.307 6.84668 15.647 7.40668 15.647 8.00668C15.647 8.60001 15.3137 9.16668 14.7203 9.56668C14.1137 9.96668 13.327 10.1867 12.507 10.1867Z" fill="#6B6B6B"/>
<path d="M4.48031 5.27333C4.47365 5.27333 4.46698 5.27333 4.46698 5.27333C3.26698 5.23333 2.32698 4.25999 2.32031 3.05999C2.32031 1.83333 3.32031 0.833328 4.54031 0.833328C5.76031 0.833328 6.76031 1.83333 6.76031 3.05333C6.76031 4.26 5.82031 5.23333 4.62031 5.27333L4.48031 4.77333L4.52698 5.27333C4.51365 5.27333 4.49365 5.27333 4.48031 5.27333ZM4.54698 4.27333C4.58698 4.27333 4.62031 4.27333 4.66031 4.27999C5.25365 4.25333 5.77365 3.71999 5.77365 3.05999C5.77365 2.38666 5.22698 1.83999 4.55365 1.83999C3.88031 1.83999 3.33365 2.38666 3.33365 3.05999C3.33365 3.71333 3.84031 4.23999 4.48698 4.27999C4.49365 4.27333 4.52031 4.27333 4.54698 4.27333Z" fill="#6B6B6B"/>
<path d="M4.47398 10.1867C3.65398 10.1867 2.86732 9.96668 2.26065 9.56668C1.67398 9.17335 1.33398 8.60668 1.33398 8.00668C1.33398 7.41334 1.67398 6.84668 2.26065 6.45334C3.06065 5.92001 4.18732 5.71335 5.27398 5.90668C5.54732 5.95335 5.72732 6.21334 5.68065 6.48668C5.63399 6.76001 5.37399 6.94668 5.10065 6.89334C4.27399 6.74668 3.40065 6.90001 2.81399 7.28668C2.50065 7.49334 2.33398 7.74668 2.33398 8.00668C2.33398 8.26668 2.50732 8.52668 2.81399 8.73335C3.39399 9.12002 4.26065 9.27334 5.08065 9.13334C5.35398 9.08668 5.61399 9.27335 5.66065 9.54001C5.70732 9.81335 5.52732 10.0733 5.25399 10.12C4.99399 10.1667 4.73398 10.1867 4.47398 10.1867Z" fill="#6B6B6B"/>
<path d="M8.49956 10.2533C8.47956 10.2533 8.46622 10.2533 8.44622 10.2533H8.41289C7.15289 10.2133 6.21289 9.23999 6.21289 8.03999C6.21289 6.81333 7.21289 5.81999 8.43289 5.81999C9.65289 5.81999 10.6529 6.81999 10.6529 8.03999C10.6462 9.24666 9.70622 10.22 8.50622 10.26C8.50622 10.2533 8.50622 10.2533 8.49956 10.2533ZM8.43289 6.81333C7.75956 6.81333 7.21289 7.36 7.21289 8.03333C7.21289 8.69333 7.72623 9.22667 8.38623 9.25333C8.39289 9.24667 8.44622 9.24667 8.50622 9.25333C9.15289 9.22 9.65289 8.68666 9.65956 8.03333C9.65956 7.36666 9.11289 6.81333 8.43289 6.81333Z" fill="#6B6B6B"/>
<path d="M8.50018 15.1733C7.70018 15.1733 6.90018 14.9667 6.28018 14.5467C5.69352 14.1533 5.35352 13.5933 5.35352 12.9933C5.35352 12.4 5.68685 11.8266 6.28018 11.4333C7.52685 10.6066 9.48018 10.6066 10.7202 11.4333C11.3069 11.8266 11.6469 12.3866 11.6469 12.9866C11.6469 13.58 11.3135 14.1533 10.7202 14.5467C10.1002 14.96 9.30018 15.1733 8.50018 15.1733ZM6.83352 12.2733C6.52018 12.48 6.35352 12.74 6.35352 13C6.35352 13.26 6.52685 13.5133 6.83352 13.72C7.73352 14.3266 9.26018 14.3266 10.1602 13.72C10.4735 13.5133 10.6402 13.2533 10.6402 12.9933C10.6402 12.7333 10.4669 12.48 10.1602 12.2733C9.26685 11.6666 7.74018 11.6733 6.83352 12.2733Z" fill="#6B6B6B"/>
</svg>
